# xmcd CD database file generated by freedbAccess_ocx
#
# Track frame offsets:
#       150
#       43035
#       72460
#       137892
#       174117
#       195784
#       226579
#       255904
#       298339
#
# Disc length: 4432 seconds
#
# Revision: 0
# Processed by: cddbd v1.5.1PL0 Copyright (c) Steve Scherf et al.
# Submitted via: CDnGo 2.00
#
DISCID=75114e09
DTITLE=Karl Tester - Test the rest
DYEAR=2005
DGENRE=Country
TTITLE0=Test 1
TTITLE1=Test 2
TTITLE2=Test 3
TTITLE3=Test 4
TTITLE4=Test 5
TTITLE5=Test 6
TTITLE6=Test 7
TTITLE7=Test 8
TTITLE8=Test 9
EXTD=
EXTT0=
EXTT1=
EXTT2=
EXTT3=
EXTT4=
EXTT5=
EXTT6=
EXTT7=
EXTT8=
PLAYORDER=
